<?xml version="1.0" standalone="no"?>
<!DOCTYPE svg PUBLIC "-//W3C//DTD SVG 20010904//EN"
 "http://www.w3.org/TR/2001/REC-SVG-20010904/DTD/svg10.dtd">
<svg version="1.0" xmlns="http://www.w3.org/2000/svg"
 width="414.000000pt" height="414.000000pt" viewBox="0 0 414.000000 414.000000"
 preserveAspectRatio="xMidYMid meet">
<metadata>
Created by potrace 1.11, written by Peter Selinger 2001-2013
</metadata>
<g transform="translate(0.000000,414.000000) scale(0.100000,-0.100000)"
fill="#000000" stroke="none">
<path d="M0 3070 l0 -1070 48 31 c26 18 72 64 102 102 85 110 121 147 141 147
10 0 45 13 77 28 73 36 127 48 119 28 -4 -10 0 -12 15 -8 15 3 19 1 16 -9 -6
-16 -39 -19 -51 -4 -5 6 -12 3 -20 -9 -17 -28 -63 -71 -125 -117 -28 -22 -52
-45 -52 -51 0 -6 -24 -34 -52 -63 -29 -28 -70 -70 -91 -93 -21 -23 -45 -42
-53 -42 -8 0 -17 -6 -20 -14 -3 -8 -16 -17 -30 -20 l-24 -6 0 -950 0 -950
1345 0 c740 0 1345 3 1345 7 0 4 -10 17 -22 30 -19 21 -20 23 -4 23 15 0 16 3
7 14 -9 11 -6 16 18 24 16 6 32 8 35 5 3 -3 12 2 21 11 9 9 26 16 37 16 18 0
19 -2 7 -17 -12 -15 -12 -16 4 -10 10 4 23 7 28 7 6 0 9 8 7 17 -4 23 27 67
41 58 6 -3 11 0 11 9 0 8 -6 17 -12 19 -8 3 -6 6 5 6 9 1 17 -6 17 -14 0 -8 5
-15 10 -15 6 0 10 7 10 16 0 12 6 15 21 11 15 -4 19 -2 15 8 -4 10 7 18 35 25
22 6 37 15 34 20 -6 9 16 15 39 11 4 -1 18 5 31 13 25 16 65 11 65 -9 0 -7 5
-15 12 -17 6 -2 9 -9 5 -15 -8 -13 -57 -5 -57 9 0 6 -6 5 -15 -2 -8 -6 -19 -9
-25 -5 -15 9 -13 0 10 -42 14 -26 16 -39 8 -44 -6 -4 -9 -13 -6 -21 3 -8 -1
-23 -8 -33 -14 -19 -15 -19 -20 3 -4 12 -10 19 -15 16 -5 -3 -9 2 -9 11 0 12
-5 15 -22 9 -29 -9 -46 -26 -40 -42 5 -15 -14 -16 -23 -2 -4 6 -14 10 -23 8
-10 -1 -23 1 -29 5 -8 5 -13 4 -13 -2 0 -6 -5 -10 -11 -8 -6 1 -14 -4 -17 -12
-3 -10 1 -13 16 -9 23 6 46 -31 35 -59 -6 -16 -5 -17 12 -3 16 14 17 13 11 -8
-7 -21 -5 -22 54 -22 52 0 68 5 104 29 71 49 158 73 246 68 70 -4 130 -25 130
-46 0 -13 -24 -31 -41 -31 -10 0 -20 -4 -24 -9 -5 -10 44 1 64 13 5 4 31 10
58 15 51 10 83 1 83 -24 0 -13 40 -15 270 -15 l270 0 0 106 c0 105 0 105 -23
99 -12 -4 -35 -15 -52 -26 -61 -37 -145 -78 -145 -69 0 8 62 48 120 78 14 7
34 20 45 28 17 13 18 16 5 25 -34 22 -207 -28 -257 -74 -31 -29 -32 -29 -26
-6 4 13 14 30 22 37 42 33 162 72 279 89 l32 5 0 107 c0 102 -1 105 -18 85 -9
-12 -26 -24 -36 -28 -15 -5 -17 -4 -7 8 10 11 7 19 -14 40 -15 15 -31 23 -37
20 -7 -4 -8 -2 -4 4 4 7 2 12 -3 12 -6 0 -11 -4 -11 -9 0 -5 -13 -11 -29 -13
-17 -2 -28 -1 -25 4 3 4 -12 7 -33 7 -38 -1 -38 -1 -8 -9 l30 -8 -32 -1 c-18
0 -33 4 -33 9 0 6 -5 10 -11 10 -6 0 -9 -9 -6 -20 7 -26 -10 -26 -18 0 -5 15
-12 19 -26 15 -22 -7 -87 13 -110 35 -8 8 -27 31 -42 51 -20 27 -24 38 -15 47
9 9 8 24 -5 65 -9 30 -17 64 -17 76 0 12 -7 34 -16 49 -16 26 -16 26 12 -3 16
-17 37 -41 46 -55 14 -21 14 -17 -2 20 -23 53 -27 95 -7 70 16 -21 87 -74 87
-66 0 4 -4 15 -9 25 -6 10 -6 23 0 32 7 12 9 12 9 0 0 -8 3 -11 6 -8 4 4 0 17
-9 31 -14 21 -14 26 -2 36 8 6 19 9 25 5 7 -4 9 2 4 18 -5 23 -3 25 16 20 22
-6 22 -6 4 23 -13 20 -14 25 -4 18 8 -6 26 -15 40 -18 14 -4 20 -4 14 1 -6 4
-16 18 -23 31 -11 20 -10 22 16 22 l27 0 -29 29 c-25 27 -26 30 -7 28 11 0 18
-5 16 -9 -3 -4 2 -8 10 -8 9 0 16 3 16 8 0 15 -38 64 -71 92 -19 15 -31 31
-28 34 4 4 28 -14 54 -39 56 -52 74 -61 27 -12 -18 18 -32 38 -32 45 0 17 -99
88 -142 102 -21 6 -38 14 -38 17 0 6 53 -1 85 -12 14 -5 12 1 -10 19 -25 22
-28 28 -15 36 21 14 42 12 83 -5 45 -19 48 -19 41 0 -8 21 15 19 71 -5 26 -11
49 -20 51 -20 3 0 -4 17 -16 38 -25 44 -111 100 -167 109 -30 5 -34 8 -18 14
12 5 14 8 6 8 -11 1 -10 5 5 16 18 14 18 14 -6 14 -14 0 -43 -6 -65 -14 -57
-20 -54 -12 7 18 34 17 45 27 32 27 -12 0 -62 -20 -113 -45 -50 -25 -96 -45
-101 -45 -18 0 -11 -19 11 -31 20 -10 18 -12 -27 -33 -49 -22 -49 -22 -82 -3
-18 11 -31 25 -28 32 7 19 -63 17 -93 -2 -18 -12 -21 -17 -10 -23 8 -6 -5 -11
-39 -16 -29 -4 -55 -11 -58 -16 -3 -5 0 -8 8 -6 7 2 16 -1 18 -7 3 -5 -15 -15
-40 -21 -31 -7 -49 -18 -57 -35 -11 -20 -10 -25 3 -27 8 -2 13 -9 11 -15 -2
-8 -34 -13 -85 -15 -45 -2 -82 -7 -82 -12 0 -6 9 -10 21 -10 11 0 17 -4 14
-10 -3 -5 -15 -10 -27 -10 -17 0 -18 -2 -8 -15 14 -17 15 -17 -65 -17 -59 1
-59 0 -30 -13 24 -11 26 -14 10 -15 -26 -1 -84 -50 -67 -57 19 -7 14 -20 -10
-26 -14 -4 -29 0 -41 11 -10 9 -18 12 -17 7 7 -32 -2 -56 -24 -65 -18 -7 -22
-14 -19 -34 5 -26 -10 -36 -22 -16 -13 21 -21 9 -17 -22 4 -29 3 -31 -10 -20
-13 11 -16 10 -14 -5 2 -27 -31 -27 -58 0 -23 23 -26 24 -46 10 -12 -9 -20
-23 -17 -32 6 -26 -14 -37 -71 -38 -30 0 -59 -6 -65 -12 -6 -6 -19 -11 -29
-11 -10 0 -18 -4 -18 -10 0 -5 -3 -9 -7 -8 -5 0 -16 -2 -26 -7 -9 -4 -26 -5
-37 -2 -15 4 -19 0 -17 -17 2 -18 -4 -21 -35 -24 -26 -2 -38 -8 -38 -19 0 -10
-6 -14 -20 -10 -10 3 -24 -1 -31 -9 -6 -8 -18 -14 -25 -14 -8 0 -14 -6 -14
-14 0 -8 -20 -18 -52 -25 -69 -15 -69 -15 -96 -30 -21 -11 -24 -10 -33 18 -6
17 -14 31 -19 31 -13 0 -59 -51 -66 -74 -9 -30 -25 -47 -36 -40 -6 4 -5 10 3
14 10 7 10 11 0 24 -13 15 -41 11 -41 -6 0 -10 -12 -23 -44 -48 -18 -14 -19
-13 -14 8 5 16 0 29 -15 43 l-22 20 -6 -23 c-3 -13 -1 -26 5 -30 7 -6 6 -11
-4 -17 -9 -6 -19 -6 -26 0 -11 9 -23 -12 -28 -46 -3 -22 -36 -16 -45 8 -5 13
-16 27 -25 30 -18 7 -66 -14 -66 -29 0 -6 -9 -19 -20 -29 -20 -18 -20 -18 -14
16 3 19 7 40 10 47 5 18 -14 15 -52 -9 -19 -11 -34 -16 -34 -10 0 5 5 13 10
16 6 3 10 13 10 21 0 12 -4 12 -20 4 -10 -6 -24 -9 -31 -8 -6 2 -26 -15 -43
-38 -26 -33 -34 -38 -44 -27 -10 10 -9 13 5 13 15 0 16 2 3 10 -13 8 -13 13 3
40 14 24 15 30 4 30 -7 0 -17 -3 -21 -7 -3 -4 -13 -8 -21 -9 -7 -1 -29 -14
-48 -28 -19 -14 -39 -26 -45 -26 -7 0 -12 -4 -12 -9 0 -14 -69 -51 -93 -50
-17 0 -14 5 16 18 30 14 35 20 22 25 -9 3 -21 3 -27 0 -5 -4 -5 3 2 16 11 20
10 21 -9 11 -11 -6 -23 -16 -26 -21 -18 -29 -135 -83 -135 -62 0 4 15 23 34
41 19 18 41 51 51 74 9 23 23 57 31 75 19 45 19 69 -1 52 -8 -7 -15 -9 -15 -4
0 4 -6 -1 -14 -11 -8 -11 -12 -23 -10 -27 3 -5 0 -8 -5 -8 -18 0 -13 25 16 82
36 69 56 141 57 206 1 31 5 52 12 52 7 0 14 10 18 23 9 32 7 37 -8 31 -9 -4
-15 5 -19 28 -5 35 9 74 51 142 13 21 19 35 13 32 -7 -5 -8 -1 -5 9 4 9 13 14
21 11 7 -3 43 8 78 24 36 17 67 30 69 30 2 0 6 -9 9 -20 5 -20 27 -28 27 -10
0 5 14 8 30 6 30 -3 30 -3 13 16 -10 11 -19 15 -21 9 -2 -6 -8 -9 -12 -6 -10
6 19 45 33 45 8 0 476 228 486 237 3 2 -5 24 -17 48 -12 25 -22 49 -22 54 0 4
18 16 40 26 43 19 48 35 25 75 -8 14 -14 30 -15 36 0 9 173 94 192 94 4 0 17
-22 29 -50 12 -27 23 -50 26 -50 2 0 21 9 43 20 22 11 42 20 45 20 3 0 15 -20
26 -45 11 -25 22 -45 24 -45 2 0 24 9 50 20 26 11 48 20 51 20 2 0 14 -20 26
-44 l23 -45 65 31 c84 39 142 60 135 48 -4 -6 12 -7 42 -4 52 7 103 24 103 36
0 4 14 5 30 1 22 -4 36 0 50 12 11 10 23 15 27 12 3 -4 0 -7 -7 -7 -7 0 -11
-3 -8 -6 10 -9 89 36 83 46 -4 6 -2 10 4 10 5 0 11 -5 13 -10 2 -7 28 2 60 20
32 16 66 30 75 30 15 0 16 -2 3 -10 -8 -5 -11 -10 -7 -10 5 0 33 16 62 35 53
36 91 80 87 101 -1 7 9 15 24 18 20 5 25 12 21 26 -3 11 -1 23 4 26 5 3 6 10
3 16 -4 6 -2 8 4 4 6 -3 13 3 17 14 3 11 10 20 15 20 14 0 42 60 36 76 -3 8
-1 14 4 14 6 0 10 -4 10 -10 0 -5 5 -10 11 -10 5 0 8 4 5 8 -9 15 54 4 98 -17
30 -15 53 -20 72 -15 26 7 26 8 9 20 -15 11 -15 14 -4 14 8 0 19 -4 24 -8 21
-18 103 -37 158 -37 44 0 54 -3 42 -11 -8 -6 -15 -14 -15 -18 0 -11 56 -6 68
6 10 10 19 8 42 -5 17 -10 35 -15 40 -12 6 3 10 -2 10 -12 0 -14 2 -15 9 -4 6
8 11 10 15 3 10 -17 86 -11 86 6 0 11 -8 13 -30 9 -25 -5 -28 -4 -23 11 4 9
11 20 17 24 7 5 3 13 -12 23 -12 9 -20 21 -17 26 4 5 1 9 -5 9 -6 0 -20 23
-32 50 -14 34 -26 50 -39 50 -11 0 -16 5 -13 13 2 7 -4 21 -15 31 -11 10 -18
23 -15 27 3 5 -7 23 -23 39 -44 46 -54 60 -46 60 4 0 -1 8 -12 16 -19 15 -18
16 15 9 l35 -7 -25 24 c-72 68 -233 170 -302 189 -24 7 -51 19 -60 27 -34 28
-217 94 -342 122 -71 16 -134 34 -140 41 -12 13 23 9 179 -17 77 -13 114 -21
225 -48 9 -2 31 -13 50 -24 19 -12 62 -28 95 -36 33 -9 72 -21 87 -27 32 -13
63 7 47 32 -5 8 -9 23 -9 34 0 11 -7 32 -14 48 -8 15 -11 27 -5 27 5 0 9 -5 9
-11 0 -6 7 -9 15 -5 8 3 20 0 27 -7 7 -7 25 -18 40 -24 14 -6 42 -36 62 -66
19 -29 47 -60 61 -67 15 -8 23 -20 20 -27 -3 -8 0 -11 6 -8 6 4 14 18 19 31
11 27 30 32 30 8 0 -22 40 -14 54 11 6 11 14 22 17 25 22 17 89 181 95 230 17
132 17 160 0 160 -19 0 -22 45 -6 100 6 19 6 38 1 43 -5 5 -2 21 6 38 8 16 11
34 7 40 -3 6 -1 22 7 35 9 18 10 27 1 36 -8 8 -18 3 -39 -20 -22 -24 -39 -32
-83 -37 -53 -6 -56 -5 -70 19 -13 26 -42 37 -37 15 1 -6 -4 -14 -12 -17 -8 -2
-11 0 -8 5 4 6 -9 9 -33 8 -30 -2 -45 -9 -66 -34 -15 -18 -32 -30 -39 -27 -7
2 -18 -1 -24 -7 -10 -9 -12 -9 -9 3 4 19 -27 15 -62 -9 -21 -15 -30 -15 -60
-5 -21 7 -39 8 -46 3 -6 -5 -13 -6 -16 -4 -3 3 -3 -5 -1 -18 6 -30 -28 -73
-50 -64 -10 4 -17 16 -17 27 0 12 -4 18 -10 15 -6 -3 -10 3 -10 14 0 11 -4 22
-9 26 -6 3 -8 15 -6 27 4 20 4 20 -22 -3 -26 -24 -26 -24 -14 -1 7 12 27 32
46 45 19 12 35 27 35 33 0 25 28 36 66 25 30 -8 41 -7 54 4 9 8 22 15 28 15 7
0 39 25 72 55 58 53 80 61 80 29 0 -8 4 -12 10 -9 6 3 7 -1 4 -9 -3 -9 -2 -16
4 -16 16 0 34 28 36 55 0 14 4 25 8 25 4 0 5 6 2 14 -10 25 16 28 36 4 21 -25
26 -18 10 12 -8 15 -6 21 7 29 16 9 16 10 -5 11 -18 0 -20 3 -12 18 5 9 19 41
31 69 12 29 25 50 30 47 5 -3 6 2 3 10 -9 24 4 19 32 -11 l24 -26 -27 -29
c-14 -15 -23 -31 -19 -35 4 -5 18 5 31 21 l23 29 20 -44 20 -44 -21 -9 c-20
-8 -20 -9 -4 -13 21 -5 57 -38 57 -52 0 -5 20 -9 45 -9 29 -1 43 2 39 9 -3 6
0 9 8 7 8 -2 38 10 66 25 l52 28 0 189 0 190 -924 0 c-733 0 -925 -2 -929 -12
-4 -10 -6 -10 -6 0 -1 9 -48 12 -199 12 -145 0 -202 -3 -211 -12 -11 -10 -13
-10 -7 0 6 9 -183 12 -928 12 l-936 0 0 -1070z m3850 1020 c0 -6 -26 -10 -57
-10 -41 0 -54 3 -43 10 20 13 100 13 100 0z m225 -20 c56 -33 36 -42 -22 -10
-21 11 -43 20 -50 20 -6 0 -15 5 -18 10 -13 21 42 9 90 -20z m-2486 -64 c-2
-2 -15 -9 -29 -15 -24 -11 -24 -11 -6 3 16 13 49 24 35 12z m2399 -52 c71 -43
89 -60 113 -104 32 -60 33 -60 20 -60 -5 0 -31 27 -57 60 -55 70 -166 147
-183 126 -6 -7 -9 -27 -7 -45 5 -41 -8 -47 -32 -16 -11 14 -25 25 -31 25 -6 0
-11 6 -11 14 0 21 -44 28 -150 26 -52 0 -91 2 -87 6 11 12 126 22 236 21 l105
-1 84 -52z m-2582 -51 c-8 -16 -30 -45 -48 -65 -18 -20 -43 -56 -56 -80 -28
-55 -29 -20 -1 42 19 43 94 130 111 130 5 0 2 -12 -6 -27z m914 -126 c0 -10 4
-16 9 -13 5 4 7 -3 4 -14 -12 -45 -27 -33 -23 17 1 12 -4 32 -10 45 -11 22
-10 22 4 4 9 -11 16 -28 16 -39z m272 -51 c19 -8 48 -32 64 -53 48 -64 106
-123 115 -118 12 8 199 -50 243 -75 22 -14 53 -23 73 -22 19 1 48 -5 64 -14
41 -21 36 -27 -7 -9 -49 20 -71 20 -54 0 7 -8 19 -15 27 -15 8 0 13 -6 10 -12
-3 -9 7 -13 35 -12 21 0 41 -3 44 -7 2 -5 11 -6 19 -2 9 3 15 -1 15 -11 0 -9
8 -16 18 -16 9 0 28 -6 42 -14 14 -7 46 -24 72 -38 26 -14 71 -45 100 -69 29
-24 55 -46 58 -48 3 -2 0 -6 -6 -8 -8 -3 -6 -16 7 -43 11 -21 19 -45 19 -53 0
-7 5 -18 12 -25 7 -7 8 -12 2 -12 -6 0 -21 12 -35 27 -13 14 -18 23 -11 19 6
-4 12 -5 12 -1 0 14 -60 122 -74 135 -24 19 -30 6 -12 -29 9 -16 16 -36 16
-44 0 -8 7 -20 15 -27 29 -24 15 -29 -25 -8 -37 20 -60 48 -40 48 10 0 -20 73
-32 78 -5 2 -8 10 -8 17 0 7 -11 20 -25 29 -30 20 -31 14 -5 -39 11 -22 19
-45 20 -51 0 -7 7 -14 15 -18 8 -3 15 -12 15 -19 0 -12 -8 -10 -39 5 -42 21
-72 48 -52 48 25 0 -34 98 -79 130 -27 19 -29 19 -23 3 3 -10 15 -30 25 -45
10 -14 18 -30 18 -36 0 -5 9 -21 21 -36 24 -31 25 -30 -34 -10 -45 15 -58 28
-37 36 15 5 -28 90 -61 120 -48 44 -95 65 -68 31 12 -16 12 -16 -1 -6 -16 12
-18 12 -47 14 -12 0 -8 4 10 11 15 5 24 14 21 20 -4 7 -9 6 -14 -1 -4 -7 -15
-9 -25 -5 -17 7 -17 8 -1 14 12 4 0 11 -36 22 -92 28 -180 49 -186 43 -3 -3 3
-18 14 -33 26 -35 23 -90 -11 -190 -31 -93 -49 -125 -40 -69 3 21 3 47 -1 59
-6 19 -7 19 -25 -8 -16 -25 -19 -26 -19 -9 0 11 7 32 14 48 21 38 9 34 -31
-13 -19 -22 -42 -40 -50 -40 -15 0 -15 2 -1 18 18 20 59 107 56 119 -1 4 5 21
12 37 13 25 12 30 -5 42 -10 8 -26 14 -36 14 -11 0 -19 11 -23 35 -4 19 -13
47 -21 62 -8 15 -15 36 -15 46 0 11 -4 15 -12 11 -7 -4 -8 -3 -4 4 13 22 34
13 32 -13 -2 -13 1 -22 6 -19 5 3 7 12 4 20 -3 8 0 14 6 14 6 0 4 9 -5 23 -8
12 -20 21 -25 20 -6 -1 -16 4 -22 12 -14 17 -38 19 -59 6 -12 -8 -12 -11 0
-23 8 -8 21 -17 29 -21 10 -4 8 -6 -7 -6 -21 -1 -53 22 -53 38 0 16 -275 -37
-338 -66 -33 -15 -61 -22 -74 -17 -11 3 -24 1 -27 -5 -4 -6 -30 -15 -58 -20
-28 -6 -76 -19 -107 -29 -31 -10 -56 -17 -56 -15 0 7 119 55 185 74 39 12 79
23 89 26 13 4 17 2 12 -5 -5 -8 -2 -10 8 -6 9 3 16 10 16 15 0 11 57 27 145
40 291 45 264 43 307 25z m1417 -2 c-6 -7 -17 -10 -26 -7 -17 7 -2 20 22 20
11 0 12 -4 4 -13z m-339 -54 c0 -5 -5 -10 -11 -10 -5 0 -7 5 -4 10 3 6 8 10
11 10 2 0 4 -4 4 -10z m-1857 -182 c6 -4 8 -10 4 -14 -10 -10 -37 16 -37 36 0
27 15 34 19 8 1 -12 8 -26 14 -30z m814 20 c-3 -8 -6 -5 -6 6 -1 11 2 17 5 13
3 -3 4 -12 1 -19z m-299 3 c0 -4 0 -14 1 -24 1 -17 3 -17 23 -3 31 22 48 20
48 -6 0 -40 -19 -92 -54 -151 -19 -31 -31 -57 -26 -57 5 0 12 5 15 10 3 6 11
10 16 10 6 0 8 -4 4 -9 -11 -19 -257 -88 -371 -105 -48 -7 -66 8 -82 65 -10
39 2 107 26 144 l14 20 -8 -20 c-25 -69 -27 -112 -8 -151 10 -21 26 -40 35
-42 15 -3 15 2 4 53 -18 74 -5 115 50 170 43 43 56 49 215 94 37 10 99 11 98
2z m-2148 -65 c-16 -21 -6 -21 14 0 9 8 41 24 72 35 64 23 108 18 124 -12 6
-10 18 -19 28 -19 15 0 15 -2 2 -10 -8 -5 -25 -10 -37 -10 -21 0 -73 -25 -118
-56 -26 -19 -35 -18 -35 5 0 26 -12 32 -61 33 -37 0 -40 3 -35 22 3 11 6 34 6
51 l0 30 27 -27 c22 -23 24 -29 13 -42z m436 11 c1 -1 21 -38 45 -82 40 -75
193 -285 207 -285 3 0 23 16 43 36 l37 36 80 -27 c44 -16 90 -37 103 -47 l24
-19 -25 6 c-50 12 -160 58 -160 67 0 5 -5 6 -10 3 -7 -4 -6 -14 1 -28 9 -18 9
-20 -2 -9 -22 21 -30 13 -14 -12 13 -20 14 -29 5 -46 -6 -12 -9 -24 -7 -27 3
-2 8 5 12 16 3 12 11 18 17 15 7 -4 8 2 3 17 -5 18 -4 21 4 13 6 -5 18 -37 26
-70 8 -32 20 -68 25 -79 43 -91 65 -245 35 -245 -8 0 -15 -6 -15 -14 0 -7 -8
-20 -17 -27 -16 -13 -17 -12 -4 4 12 15 11 17 -5 18 -16 1 -16 2 -2 6 18 5 31
30 22 44 -18 29 -61 -15 -51 -52 3 -12 0 -19 -8 -19 -7 0 -23 -15 -34 -34 -12
-19 -29 -40 -38 -47 -9 -8 1 12 21 43 21 31 36 63 33 70 -3 8 -8 4 -15 -12 -5
-14 -28 -48 -49 -75 -22 -28 -42 -55 -44 -60 -15 -38 -96 -135 -111 -135 -19
0 -68 27 -80 45 -16 22 -7 27 15 8 30 -28 72 -37 87 -18 6 8 8 20 4 26 -4 7
-9 27 -10 43 -2 17 -7 69 -13 116 -8 64 -7 86 2 92 9 6 9 8 -2 8 -7 0 -11 6
-7 15 8 22 -2 18 -15 -6 -9 -17 -8 -20 3 -14 7 5 10 4 5 -1 -5 -5 -12 -9 -15
-9 -4 0 -13 -4 -21 -9 -28 -18 111 164 163 213 37 36 48 32 21 -6 -39 -56 -63
-117 -53 -136 9 -18 11 -18 29 -1 19 17 19 16 14 -47 -8 -91 -12 -122 -20
-142 -6 -13 -3 -16 8 -11 20 7 49 52 54 81 1 13 5 35 8 51 2 15 5 59 6 97 2
85 16 53 18 -40 1 -42 4 -55 11 -45 5 8 7 25 3 38 -4 16 1 28 13 38 14 10 15
13 3 8 -13 -4 -17 4 -21 43 -5 53 -38 132 -63 153 -14 12 -26 4 -93 -61 -61
-59 -66 -63 -27 -19 61 70 103 109 108 104 2 -3 2 7 -1 21 l-4 25 -32 -37
c-98 -117 -208 -243 -212 -243 -3 0 16 27 41 60 37 48 44 63 36 77 -6 11 -11
13 -11 5 0 -7 -5 -10 -10 -7 -6 4 -8 10 -5 15 3 4 -2 10 -10 14 -8 3 -17 1
-20 -4 -4 -6 -11 -10 -17 -10 -7 0 -2 9 10 21 12 11 26 18 31 15 16 -10 -1 42
-21 63 -21 23 -47 19 -28 -4 9 -11 5 -14 -22 -17 -39 -4 -43 -21 -6 -28 19 -4
24 -9 19 -22 -5 -15 -16 -9 -64 35 -31 29 -57 60 -57 69 0 9 -4 20 -10 23 -5
3 -10 1 -10 -5 0 -22 -13 -11 -179 140 -33 30 -61 70 -61 87 0 16 71 66 140
99 30 15 62 33 70 40 18 15 81 23 130 17 19 -3 36 -6 36 -6z m2267 6 c-7 -2
-21 -2 -30 0 -10 3 -4 5 12 5 17 0 24 -2 18 -5z m97 -24 c26 -15 -22 -10 -55
6 l-30 14 35 -6 c19 -3 42 -9 50 -14z m-1203 -141 c-3 -8 -6 -5 -6 6 -1 11 2
17 5 13 3 -3 4 -12 1 -19z m26 0 c-3 -16 -2 -19 4 -10 7 9 17 -3 37 -43 15
-31 25 -59 22 -64 -10 -15 39 -28 94 -24 30 2 73 5 95 6 23 2 46 7 53 11 7 4
16 5 21 1 5 -3 12 -1 16 5 3 5 20 10 36 10 17 0 28 4 25 9 -3 5 16 15 42 22
63 17 67 17 68 -6 1 -28 -14 -55 -31 -55 -7 0 -17 -5 -21 -12 -5 -8 -2 -9 10
-5 9 4 15 3 12 -2 -9 -14 -109 -36 -113 -24 -2 5 -18 7 -36 4 -31 -4 -31 -5
-7 -12 l25 -7 -26 -1 c-14 -1 -34 -8 -45 -16 -10 -8 -23 -14 -29 -15 -5 0 -3
5 5 10 13 9 13 10 0 10 -25 0 -60 -12 -56 -19 3 -4 -3 -7 -12 -7 -9 0 -42 -4
-72 -8 -62 -9 -64 -1 -4 13 23 5 30 9 17 10 -28 1 -29 12 -3 36 26 23 26 35 0
28 -11 -3 -18 -9 -15 -13 13 -21 -70 -81 -108 -78 -29 3 -49 40 -87 160 -26
82 -26 92 0 78 14 -8 20 -8 20 0 0 8 6 8 20 0 15 -8 21 -6 30 10 14 26 19 25
13 -2z m597 18 c0 -2 -7 -7 -16 -10 -8 -3 -12 -2 -9 4 6 10 25 14 25 6z m125
-17 c-16 -17 -17 -25 -8 -50 7 -19 8 -29 1 -29 -5 0 -12 9 -15 20 -3 11 -9 20
-14 20 -5 0 -6 7 -2 16 5 13 0 13 -33 -4 -21 -10 -51 -22 -66 -26 -33 -8 -38
-27 -5 -21 58 11 81 14 69 9 -6 -3 -10 -9 -7 -14 6 -9 -37 -27 -84 -35 -29 -5
-32 -3 -26 12 4 10 9 26 12 35 3 10 30 25 67 38 33 11 72 27 86 35 36 20 46
18 25 -6z m-918 5 c-3 -3 -12 -4 -19 -1 -8 3 -5 6 6 6 11 1 17 -2 13 -5z m-37
-23 c-8 -5 -28 -11 -45 -14 l-30 -6 30 14 c34 16 72 21 45 6z m79 -39 c5 -9
12 -34 16 -55 4 -21 14 -45 22 -53 21 -21 10 -41 -26 -46 -29 -4 -54 16 -30
24 14 5 -15 118 -32 129 -8 5 -6 8 7 12 32 8 33 8 43 -11z m-127 -30 c-10 -7
-8 -13 7 -26 14 -13 20 -14 23 -4 3 7 8 -6 13 -30 4 -24 13 -46 21 -49 22 -8
17 -30 -8 -36 -13 -2 -31 -8 -41 -12 -15 -6 -18 -3 -15 16 1 13 -1 48 -6 77
-6 38 -12 52 -24 53 -14 0 -13 2 3 9 26 11 44 12 27 2z m-153 -5 c-17 -14 -98
-54 -94 -46 7 10 75 48 89 49 5 0 7 -1 5 -3z m1066 -37 c-16 -4 -39 -8 -50 -8
l-20 -1 20 9 c11 5 34 8 50 8 l30 0 -30 -8z m1132 -18 c26 -35 63 -116 63
-137 0 -9 5 -26 11 -38 9 -19 7 -18 -10 3 -11 14 -21 30 -21 37 0 17 -35 93
-60 131 -27 39 -12 43 17 4z m-2162 -2 c3 -6 -1 -7 -9 -4 -18 7 -21 14 -7 14
6 0 13 -4 16 -10z m-1 -50 c-6 -6 -10 -3 -10 10 0 13 4 16 10 10 7 -7 7 -13 0
-20z m33 8 c-3 -8 -6 -5 -6 6 -1 11 2 17 5 13 3 -3 4 -12 1 -19z m8 -28 c-3
-5 -2 -10 4 -10 5 0 12 6 14 13 3 6 6 2 6 -10 1 -16 -3 -21 -14 -17 -9 4 -15
0 -15 -10 0 -19 5 -20 31 -6 13 7 19 7 19 0 0 -5 -1 -10 -3 -10 -1 0 -16 -4
-32 -9 l-30 -8 3 38 c2 22 8 39 14 39 5 0 6 -4 3 -10z m-1272 -79 c27 -13 47
-25 44 -27 -6 -6 -127 53 -127 61 0 3 8 2 18 -3 9 -5 39 -19 65 -31z m2035 3
c-3 -3 -21 -6 -39 -6 -19 0 -38 -3 -43 -6 -5 -3 -27 -7 -50 -8 -23 -2 -50 -8
-61 -14 -36 -17 -120 -37 -135 -32 -8 3 -12 1 -8 -3 11 -12 -62 -173 -91 -199
-20 -18 -20 -18 -10 15 6 19 20 65 30 103 27 95 33 104 82 116 23 6 59 16 79
21 20 5 60 9 87 8 28 -1 54 1 58 4 3 4 29 7 56 7 28 0 48 -3 45 -6z m1633
-187 c-10 -9 -11 -8 -5 6 3 10 9 15 12 12 3 -3 0 -11 -7 -18z m-2453 -71 c15
2 19 1 8 -2 -10 -3 -39 -17 -63 -30 -24 -14 -49 -22 -56 -18 -6 4 -9 4 -5 0 6
-8 -253 -271 -277 -279 -7 -3 -25 -23 -41 -44 -40 -55 -48 -62 -31 -28 9 17
36 51 60 77 25 26 42 50 38 53 -3 4 -1 5 4 3 6 -1 11 2 13 7 5 16 34 44 42 42
10 -3 59 50 54 57 -2 3 -1 4 3 1 9 -7 34 16 27 26 -6 11 75 99 91 99 7 0 18 7
25 15 14 17 73 36 78 25 1 -4 15 -6 30 -4z m-801 -51 c-7 -14 -16 -25 -20 -25
-8 0 -2 14 16 38 15 19 16 14 4 -13z m453 11 c0 -3 -4 -8 -10 -11 -5 -3 -10
-1 -10 4 0 6 5 11 10 11 6 0 10 -2 10 -4z m27 -48 c-3 -8 -6 -5 -6 6 -1 11 2
17 5 13 3 -3 4 -12 1 -19z m2583 2 c0 -5 -4 -10 -10 -10 -5 0 -10 5 -10 10 0
6 5 10 10 10 6 0 10 -4 10 -10z m-2619 -71 c-17 -23 -31 -38 -31 -33 0 14 51
86 57 81 2 -3 -9 -24 -26 -48z m-38 -6 c-3 -7 -9 -10 -14 -7 -5 3 -6 -2 -3
-10 3 -8 -3 -19 -15 -25 -18 -10 -20 -8 -19 20 1 33 36 68 49 47 4 -6 5 -17 2
-25z m-429 -71 c3 -35 2 -61 -2 -58 -5 3 -10 33 -11 68 -3 79 4 73 13 -10z
m366 39 c-7 -13 -7 -22 0 -26 5 -3 10 -11 10 -17 0 -6 -7 -5 -17 3 -14 12 -16
12 -11 -1 4 -11 0 -16 -12 -16 -10 0 -16 6 -13 13 3 7 8 13 12 13 4 0 13 11
19 25 6 14 14 25 17 25 3 0 1 -9 -5 -19z m-42 -21 c-7 -10 -14 -17 -17 -15 -4
4 18 35 25 35 2 0 -1 -9 -8 -20z m86 -15 c-9 -14 -18 -25 -21 -25 -5 0 5 18
20 38 17 22 18 13 1 -13z m2004 -20 c12 -25 22 -48 22 -50 0 -3 -22 -16 -50
-30 -27 -14 -50 -28 -50 -31 0 -2 9 -22 20 -44 11 -22 20 -41 20 -44 0 -2 -20
-12 -45 -22 -25 -9 -45 -21 -45 -26 0 -5 9 -26 20 -48 11 -22 20 -43 20 -48 0
-8 -83 -52 -99 -52 -5 0 -17 20 -27 45 -9 25 -21 48 -25 51 -9 5 -99 -37 -99
-47 0 -4 9 -28 20 -54 11 -26 20 -48 20 -50 0 -4 -102 -47 -105 -43 -8 9 -45
89 -45 97 0 5 20 17 45 27 25 9 48 21 51 25 2 5 -4 26 -16 48 -11 22 -20 43
-20 45 0 3 23 15 50 27 28 12 50 26 50 31 0 5 -9 26 -20 48 -11 22 -20 43 -20
48 0 7 82 52 95 52 3 0 16 -22 30 -50 14 -27 28 -50 31 -50 2 0 23 9 45 20 43
22 44 30 13 92 -19 36 -19 35 24 57 54 29 66 26 90 -24z m-2321 -7 c-3 -7 -5
-2 -5 12 0 14 2 19 5 13 2 -7 2 -19 0 -25z m170 -93 c0 -8 -4 -12 -9 -9 -5 3
-6 10 -3 15 9 13 12 11 12 -6z m66 -116 c-10 -17 -24 -36 -32 -42 -11 -10 -13
-8 -7 11 4 12 5 22 2 22 -11 0 -76 -111 -71 -120 3 -6 -1 -7 -10 -4 -11 5 -14
2 -9 -10 3 -9 10 -13 15 -10 5 3 9 -9 9 -25 0 -17 -2 -31 -5 -31 -10 0 -35 73
-28 84 28 47 96 125 105 120 7 -5 9 -1 5 8 -7 20 -4 23 23 25 20 2 20 1 3 -28z
m1101 -34 l31 -14 -55 -24 c-30 -14 -100 -46 -154 -71 -56 -27 -106 -44 -115
-41 -13 5 -11 10 12 27 15 11 27 26 27 33 0 8 7 11 20 8 15 -4 20 0 20 15 0
18 4 20 29 12 22 -6 28 -5 25 4 -3 7 2 18 10 25 8 7 12 19 9 27 -3 8 1 15 8
16 8 0 19 2 24 3 6 2 18 3 28 4 9 0 17 9 17 18 0 14 3 13 16 -6 9 -13 31 -29
48 -36z m-1149 -46 c-3 -8 -15 -21 -28 -28 -21 -14 -21 -13 -7 5 36 45 46 52
35 23z m-215 -55 c-6 -16 -16 -69 -24 -119 -8 -52 -14 -74 -15 -53 -1 36 21
154 35 191 11 30 15 13 4 -19z m71 -103 c-20 -20 -26 -34 -22 -55 1 -5 -3 -12
-10 -16 -8 -6 -8 -13 2 -31 11 -22 11 -23 -5 -10 -14 12 -16 12 -10 -3 3 -9 1
-16 -5 -16 -6 0 -11 -5 -11 -11 0 -5 5 -7 10 -4 12 7 12 3 4 -19 -3 -9 -11
-13 -17 -9 -6 3 -7 1 -3 -6 4 -6 3 -17 -2 -24 -15 -18 -41 -98 -30 -91 5 4 3
-8 -6 -24 -27 -52 -36 -157 -25 -277 22 -240 25 -265 37 -277 11 -11 12 -9 7
7 -3 11 9 -9 26 -45 22 -43 56 -88 103 -135 39 -38 55 -58 36 -44 -108 78
-140 104 -142 114 0 5 -2 17 -2 25 -1 8 -7 14 -13 13 -33 -7 -81 141 -103 316
-12 94 -7 199 11 232 5 10 11 35 13 56 2 21 6 45 9 53 3 8 13 42 22 74 19 68
75 185 114 235 24 31 26 33 29 13 2 -11 -6 -30 -17 -41z m13 -17 c4 -9 2 -13
-5 -8 -8 4 -9 -1 -4 -15 3 -11 2 -21 -3 -21 -8 0 -9 19 -3 53 2 12 8 8 15 -9z
m2186 -8 c0 -3 -4 -8 -10 -11 -5 -3 -10 -1 -10 4 0 6 5 11 10 11 6 0 10 -2 10
-4z m-1233 -136 l22 -50 -50 -25 c-27 -14 -49 -28 -49 -30 0 -3 7 -22 15 -42
8 -19 15 -39 15 -44 0 -8 -71 -49 -85 -49 -3 0 -14 20 -25 45 -11 25 -22 45
-25 45 -3 0 -18 -6 -33 -14 -64 -32 -71 -31 -92 16 -23 51 -24 64 -7 71 6 3
29 12 50 21 l38 16 20 -47 c11 -26 22 -49 24 -51 6 -7 95 32 95 41 0 4 -9 25
-20 47 -11 22 -20 44 -20 49 0 10 74 49 95 50 6 0 20 -22 32 -49z m1053 20 c8
-5 11 -10 5 -10 -5 0 -17 5 -25 10 -8 5 -10 10 -5 10 6 0 17 -5 25 -10z
m-1316 -260 c21 -53 21 -56 -11 -68 -16 -5 -36 -13 -45 -17 -13 -5 -22 3 -37
34 -12 22 -21 44 -21 48 0 8 66 40 86 42 7 1 19 -17 28 -39z m2302 -366 c18
-14 18 -14 -6 -3 -31 14 -36 19 -24 19 6 0 19 -7 30 -16z m-2166 -749 c0 -12
-19 -12 -23 0 -4 9 -1 12 9 8 7 -3 14 -7 14 -8z m2260 -37 c20 -12 -49 1 -70
13 -9 5 -2 6 20 2 19 -3 42 -10 50 -15z m115 -17 c-3 -6 -14 -11 -23 -11 -13
0 -13 2 4 14 21 15 30 14 19 -3z m-70 0 c-6 -4 -23 -11 -40 -14 l-30 -6 30 14
c35 16 54 19 40 6z m155 -32 c0 -10 0 -22 1 -26 0 -5 -7 -9 -15 -11 -12 -3
-16 5 -16 32 0 27 3 34 15 30 8 -4 15 -15 15 -25z m-480 -90 c7 -11 9 -23 6
-27 -3 -3 -6 0 -6 6 0 6 -7 18 -16 26 -8 9 -11 16 -5 16 6 0 15 -9 21 -21z
m-70 1 c-14 -4 -34 -8 -45 -8 -16 0 -15 2 5 8 14 4 34 8 45 8 16 0 15 -2 -5
-8z m603 -47 c-7 -2 -19 -2 -25 0 -7 3 -2 5 12 5 14 0 19 -2 13 -5z m-147 -41
c-17 -7 -50 -12 -73 -10 -24 2 -43 0 -43 -3 0 -10 -94 -18 -103 -9 -15 14 58
31 181 44 18 2 35 6 38 9 4 3 12 0 19 -6 10 -9 6 -15 -19 -25z m-659 -47 c-7
-6 -77 8 -77 15 0 5 10 6 22 2 18 -4 20 -2 14 14 -6 15 -3 14 18 -5 14 -14 25
-25 23 -26z"/>
<path d="M3157 3379 c7 -7 15 -10 18 -7 3 3 -2 9 -12 12 -14 6 -15 5 -6 -5z"/>
<path d="M3176 3337 c3 -10 9 -15 12 -12 3 3 0 11 -7 18 -10 9 -11 8 -5 -6z"/>
<path d="M206 3435 c-11 -8 -15 -15 -9 -15 7 0 15 5 18 10 9 15 25 12 19 -4
-6 -17 12 -31 21 -16 3 5 1 10 -4 10 -6 0 -10 5 -8 11 3 18 -16 20 -37 4z"/>
<path d="M386 3352 c-6 -10 -2 -39 7 -48 4 -4 7 7 7 24 0 32 -4 39 -14 24z"/>
<path d="M392 3251 c2 -19 9 -36 16 -39 9 -3 11 4 6 25 -10 44 -26 54 -22 14z"/>
<path d="M438 3165 c-9 -9 6 -58 20 -63 7 -2 12 5 12 15 0 23 -23 57 -32 48z"/>
<path d="M913 3092 c-16 -10 -20 -54 -6 -59 16 -6 40 44 27 57 -5 5 -14 6 -21
2z m10 -37 c-3 -9 -8 -14 -10 -11 -3 3 -2 9 2 15 9 16 15 13 8 -4z"/>
<path d="M910 3010 c-9 -6 -10 -10 -3 -10 6 0 15 5 18 10 8 12 4 12 -15 0z"/>
<path d="M712 2951 c-11 -6 -10 -10 4 -15 9 -4 22 -2 28 4 8 8 6 9 -8 4 -13
-5 -17 -4 -12 4 8 14 6 15 -12 3z"/>
<path d="M1010 2751 c-8 -5 -18 -7 -22 -5 -4 3 -8 -5 -8 -18 0 -13 4 -18 8
-13 4 6 15 16 25 24 14 11 20 11 34 0 14 -12 16 -12 11 1 -6 18 -28 23 -48 11z"/>
<path d="M1710 3277 c0 -2 6 -10 14 -16 11 -9 16 -9 22 1 4 7 4 10 -1 6 -4 -4
-14 -3 -22 3 -7 6 -13 9 -13 6z"/>
<path d="M1780 3145 c-7 -9 -10 -18 -7 -21 3 -3 10 4 17 15 13 25 8 27 -10 6z"/>
<path d="M1801 3129 c-38 -41 17 -86 58 -47 24 21 26 39 9 56 -18 18 -45 14
-67 -9z"/>
<path d="M1180 2625 c-8 -9 -8 -15 -2 -15 12 0 26 19 19 26 -2 2 -10 -2 -17
-11z"/>
<path d="M1059 2503 c-13 -16 -12 -17 4 -4 9 7 17 15 17 17 0 8 -8 3 -21 -13z"/>
<path d="M2743 2320 c-24 -11 -43 -22 -43 -24 0 -19 34 -86 44 -86 6 0 31 9
55 20 34 16 42 24 36 37 -4 10 -12 30 -17 46 -12 31 -18 32 -75 7z"/>
<path d="M3980 425 c0 -8 4 -15 10 -15 5 0 7 7 4 15 -4 8 -8 15 -10 15 -2 0
-4 -7 -4 -15z"/>
<path d="M4126 3537 c-5 -15 -6 -31 -2 -34 11 -11 18 5 14 34 l-4 28 -8 -28z"/>
<path d="M4127 3424 c-4 -4 -7 -14 -7 -23 0 -11 3 -12 11 -4 6 6 10 16 7 23
-2 6 -7 8 -11 4z"/>
<path d="M3357 3413 c-4 -3 -7 -20 -6 -37 l1 -31 8 35 c9 36 8 45 -3 33z"/>
<path d="M4111 3287 c-38 -99 -43 -128 -21 -134 18 -5 17 -8 -6 -45 -37 -58
-57 -120 -43 -129 8 -5 7 -16 -5 -39 -9 -18 -16 -38 -16 -45 0 -13 -55 -122
-103 -202 -17 -28 -39 -54 -49 -56 -30 -8 -21 -32 27 -71 l45 -37 22 23 c13
13 35 39 51 58 23 30 22 26 -7 -24 l-35 -60 27 -47 c14 -26 29 -46 32 -44 3 2
6 -13 6 -33 1 -21 9 -90 18 -154 13 -88 14 -127 7 -155 -6 -20 -9 -39 -7 -41
3 -2 23 -6 45 -9 l41 -6 0 353 c0 389 5 366 -58 300 -13 -14 -6 -1 17 28 l40
54 1 289 c0 159 -1 289 -2 289 -2 0 -14 -28 -27 -63z"/>
<path d="M3940 2300 c0 -5 5 -10 11 -10 5 0 7 5 4 10 -3 6 -8 10 -11 10 -2 0
-4 -4 -4 -10z"/>
<path d="M254 2239 c-19 -22 -19 -22 3 -10 24 12 39 31 25 31 -5 0 -17 -10
-28 -21z"/>
<path d="M3986 2195 c4 -8 8 -15 10 -15 2 0 4 7 4 15 0 8 -4 15 -10 15 -5 0
-7 -7 -4 -15z"/>
<path d="M4006 2172 c-3 -6 -1 -14 5 -17 15 -10 25 3 12 16 -7 7 -13 7 -17 1z"/>
<path d="M4026 2112 c-2 -4 -1 -14 5 -22 7 -12 9 -10 9 8 0 23 -5 28 -14 14z"/>
<path d="M4095 1824 c-11 -8 -19 -21 -17 -27 2 -6 -4 -17 -14 -24 -15 -11 -14
-13 12 -23 16 -5 37 -15 47 -20 15 -9 17 -4 17 50 0 64 -8 72 -45 44z"/>
<path d="M1959 1672 c-226 -116 -211 -108 -196 -121 8 -6 18 -7 22 -3 5 4 5 2
2 -5 -12 -20 109 -103 151 -103 37 0 131 45 139 67 4 10 9 20 13 23 3 3 18 33
33 68 32 70 35 144 6 150 -8 1 -85 -33 -170 -76z"/>
<path d="M3994 1649 c-3 -6 3 -24 15 -40 11 -15 21 -35 21 -43 0 -8 8 -21 18
-28 24 -17 59 -67 67 -95 5 -19 3 -22 -11 -16 -17 6 -17 5 -1 -17 9 -14 17
-36 17 -50 0 -20 2 -22 10 -10 16 24 13 157 -4 163 -7 3 -16 21 -20 41 -5 24
-20 46 -48 71 -45 38 -53 41 -64 24z"/>
<path d="M2473 1568 c-6 -7 -13 -25 -17 -41 -17 -72 -215 -223 -350 -268 -78
-26 -195 -81 -196 -93 0 -4 10 -5 23 -2 12 4 49 12 82 18 55 10 146 51 251
113 65 39 192 152 210 188 9 17 23 40 32 49 12 14 12 20 2 33 -15 18 -24 19
-37 3z"/>
<path d="M3795 1530 c3 -5 8 -10 11 -10 2 0 4 5 4 10 0 6 -5 10 -11 10 -5 0
-7 -4 -4 -10z"/>
<path d="M1280 1370 c0 -6 7 -10 15 -10 8 0 15 2 15 4 0 2 -7 6 -15 10 -8 3
-15 1 -15 -4z"/>
<path d="M3836 1338 c3 -5 12 -7 20 -4 8 3 14 0 14 -6 0 -6 3 -8 7 -5 11 11
32 -14 26 -30 -5 -12 -3 -14 7 -8 9 5 11 4 6 -3 -4 -6 -1 -22 6 -34 14 -26 36
-105 43 -158 13 -89 13 -100 4 -100 -5 0 -9 -9 -9 -19 0 -30 -19 -35 -29 -9
-8 21 -9 20 -9 -9 1 -18 5 -33 10 -33 4 0 7 -3 6 -7 -1 -5 5 -21 12 -38 7 -16
14 -41 16 -54 2 -13 12 -32 23 -43 22 -20 28 -34 11 -23 -5 3 -10 0 -10 -9 0
-8 -6 -16 -12 -19 -11 -4 29 -3 69 2 7 0 31 17 53 37 l40 36 0 238 c0 204 -2
241 -16 254 -8 9 -18 16 -21 16 -2 0 -2 -34 2 -75 4 -41 4 -75 1 -75 -4 0 -17
9 -29 21 l-22 20 -7 -40 c-17 -101 -47 -99 -48 4 -1 55 -2 58 -14 36 -15 -28
-21 -21 -31 34 -9 54 -56 108 -95 111 -17 1 -27 -2 -24 -8z m164 -302 c0 -3
-4 -8 -10 -11 -5 -3 -10 -1 -10 4 0 6 5 11 10 11 6 0 10 -2 10 -4z"/>
<path d="M4092 728 c-31 -38 -53 -93 -47 -116 4 -16 1 -28 -7 -33 -9 -6 -7 -9
8 -9 16 0 26 -11 38 -40 18 -46 22 -48 29 -20 3 12 1 17 -5 14 -5 -3 -8 0 -7
7 1 8 -1 22 -6 32 -11 25 0 144 15 162 7 8 8 15 2 15 -5 0 -14 -6 -20 -12z"/>
<path d="M1561 554 c0 -11 3 -14 6 -6 3 7 2 16 -1 19 -3 4 -6 -2 -5 -13z"/>
</g>
</svg>
